<?xml version="1.0" standalone="no"?>
<!DOCTYPE svg PUBLIC "-//W3C//DTD SVG 20010904//EN"
 "http://www.w3.org/TR/2001/REC-SVG-20010904/DTD/svg10.dtd">
<svg version="1.0" xmlns="http://www.w3.org/2000/svg"
 width="250.000000pt" height="250.000000pt" viewBox="0 0 250.000000 250.000000"
 preserveAspectRatio="xMidYMid meet">
<metadata>
Created by potrace 1.11, written by Peter Selinger 2001-2013
</metadata>
<g transform="translate(0.000000,250.000000) scale(0.100000,-0.100000)"
fill="#000000" stroke="none">
<path d="M1267 2413 c-1 0 -51 -4 -112 -6 -60 -3 -141 -13 -180 -21 -74 -17
-203 -63 -219 -77 -6 -5 -17 -9 -25 -9 -8 0 -22 -7 -32 -16 -9 -8 -23 -16 -31
-18 -35 -5 -182 -118 -265 -204 -121 -125 -237 -321 -279 -472 -2 -8 -10 -38
-18 -67 -22 -78 -29 -146 -29 -278 -1 -137 5 -188 35 -300 37 -140 118 -304
198 -400 39 -48 210 -217 210 -208 0 4 4 3 8 -3 25 -38 205 -137 334 -184 54
-20 72 -25 128 -36 14 -3 33 -7 43 -10 22 -7 146 -16 212 -16 83 0 182 11 255
27 3 1 32 9 65 20 33 10 66 19 72 21 32 6 191 90 260 137 72 49 204 172 266
246 97 118 195 336 223 496 26 150 26 243 -1 430 -8 62 -49 183 -90 272 -96
205 -234 367 -415 487 -68 44 -180 101 -192 98 -5 -1 -8 2 -8 6 0 5 -6 9 -12
10 -7 0 -51 13 -97 27 -46 14 -100 28 -120 31 -85 12 -108 15 -144 17 -21 1
-39 1 -40 0z m178 -242 c33 -7 65 -17 71 -22 6 -5 13 -6 17 -3 9 10 169 -67
247 -119 62 -42 200 -183 249 -255 35 -52 100 -177 107 -207 1 -5 7 -30 14
-55 6 -25 13 -58 16 -75 8 -44 12 -318 5 -330 -5 -10 -9 -24 -15 -55 -8 -50
-19 -96 -25 -105 -3 -5 -6 -15 -7 -21 -3 -21 -77 -164 -90 -175 -8 -6 -14 -16
-14 -21 0 -15 -58 -86 -118 -145 -141 -138 -340 -236 -527 -258 -22 -3 -61 -7
-86 -11 -56 -7 -223 11 -298 33 -29 8 -59 16 -65 17 -6 1 -50 21 -98 44 -180
88 -325 225 -421 400 -25 45 -44 82 -42 82 3 0 -5 21 -15 46 -11 25 -18 50
-14 55 3 5 0 9 -6 9 -6 0 -9 4 -6 9 4 5 2 21 -4 35 -20 54 -29 240 -16 348 34
286 229 556 513 706 35 19 96 41 158 58 116 32 355 39 470 15z"/>
<path d="M919 1913 c0 -18 -1 -51 -1 -73 0 -22 1 -53 1 -68 l1 -28 81 -1 c44
0 84 -4 89 -9 4 -5 20 -37 34 -72 20 -50 23 -69 15 -89 -12 -33 -81 -147 -91
-151 -5 -2 -8 -8 -8 -13 0 -6 -15 -33 -33 -62 -18 -29 -36 -59 -40 -67 -4 -8
-18 -33 -32 -55 -14 -22 -28 -47 -32 -55 -4 -8 -10 -17 -15 -20 -4 -3 -18 -24
-30 -47 -36 -64 -121 -207 -128 -213 -3 -3 -12 -18 -22 -35 -50 -92 -68 -129
-63 -134 3 -3 62 -5 132 -6 124 -1 126 0 141 25 9 14 19 27 22 30 4 3 53 79
110 170 57 91 114 179 127 196 12 17 23 36 23 42 0 7 4 12 8 12 5 0 17 16 28
35 10 19 22 35 26 35 8 0 47 -77 52 -102 4 -16 14 -43 32 -85 8 -17 14 -34 14
-38 0 -4 6 -21 14 -38 8 -18 28 -70 46 -117 17 -47 40 -107 51 -134 10 -27 19
-55 19 -63 0 -13 42 -14 80 0 22 7 100 28 121 32 30 6 141 46 177 63 22 12 30
21 26 32 -9 21 -35 101 -39 122 -8 37 -26 60 -43 53 -58 -25 -158 -52 -165
-46 -5 5 -9 15 -11 22 -3 20 -26 91 -36 114 -12 25 -33 78 -34 85 -4 22 -72
186 -78 188 -5 2 -6 8 -3 12 3 5 1 17 -5 27 -9 17 -140 350 -140 358 0 2 -5
16 -12 32 -6 15 -12 33 -14 38 -17 53 -41 115 -47 122 -5 4 -85 8 -178 8
l-169 0 -1 -32z"/>
</g>
</svg>
